<?xml version="1.0" encoding="UTF-8"?>
<!DOCTYPE svg PUBLIC "-//W3C//DTD SVG 1.1//EN" "http://www.w3.org/Graphics/SVG/1.1/DTD/svg11.dtd">
<svg version="1.1" xmlns="http://www.w3.org/2000/svg" xmlns:xlink="http://www.w3.org/1999/xlink" x="0" y="0" width="607" height="429" viewBox="0, 0, 607, 429">
  <g id="Layer_1">
    <path d="M337.07,83.516 C447.816,83.516 537.59,173.291 537.59,284.037 C537.59,312.728 531.553,340.003 520.695,364.685 L153.444,364.685 C142.589,340.003 136.55,312.728 136.55,284.037 C136.55,173.291 226.326,83.516 337.07,83.516" fill="#D1EBEE"/>
    <path d="M162.89,115.844 C171.859,115.844 179.983,120.8 185.896,128.821 C193.231,118.384 203.521,111.891 214.917,111.891 C219.13,111.891 223.192,112.779 227.012,114.425 C233.398,104.882 242.566,98.897 252.751,98.897 C262.615,98.897 271.525,104.508 277.879,113.53 C285.013,93.808 299.83,80.252 316.957,80.252 C332.727,80.252 346.542,91.748 354.202,108.967 C361.032,99.128 370.671,92.993 381.352,92.993 C402.06,92.993 418.849,116.045 418.849,144.479 C418.849,146.71 418.747,148.91 418.545,151.066 C420.703,152.344 422.628,154.222 424.208,156.543 C427.555,152.709 431.86,150.396 436.562,150.396 C446.326,150.396 454.393,160.368 455.665,173.296 C456.174,173.226 456.688,173.189 457.208,173.189 C465.578,173.189 472.357,182.501 472.357,193.991 C472.357,215.685 446.109,225.894 443.149,201.757 C439.631,219.818 422.117,216.198 420.793,192.116 C416.518,213.356 399.365,211.377 400.091,189.08 C396.694,210.131 371.228,212.673 366.5,191.768 C366.083,219.406 339.057,230.893 336.25,193.835 C329.169,243.395 269.43,247.83 281.294,174.593 C274.965,186.867 264.542,194.88 252.751,194.88 C251.803,194.88 250.865,194.826 249.936,194.728 C209.754,245.519 163.938,252.333 181.342,197.926 C146.637,232.401 123.017,204.969 130.154,160.796 C134.113,136.287 144.81,115.844 162.89,115.844" fill="#9FB93B"/>
    <path d="M50.78,162.733 C-12.718,165.581 -19.662,108.901 47.019,106.812 C29.143,39.935 78.415,30.133 112.553,80.747 C106.809,48.502 138.509,36.222 150.098,71.69 C144.883,37.802 173.873,33.237 189.207,53.349 C176.798,20.454 214.019,16.966 229.637,31.93 C214.319,-9.295 286.868,-6.145 286.407,31.981 C296.302,12.878 318.189,10.606 317.2,42.062 C329.925,16.355 377.318,17.812 368.705,54.667 C383.358,32.97 403.563,45.813 404.219,71.592 C412.526,52.952 431.608,57.085 435.61,73.85 C438.051,28.62 508.168,42.265 492.028,80.21 C510.163,49.172 557.002,70.057 546.761,106.942 C601.24,68.996 618.813,175.348 551.336,165.455 C564.259,190.929 538.365,192.344 529.811,172.37 C538.301,223.044 454.505,225.02 462.884,175.644 C423.957,230.855 395.545,174.866 417.708,138.856 C404.951,155.75 390.247,145.752 391.312,126.86 C382.692,164.67 327.602,171.582 326.654,129.115 C308.67,158.69 278.536,146.315 278.808,115.933 C268.471,147.691 248.353,147.579 234.339,122.638 C226.921,168.102 194.509,170.13 176.371,129.603 C176.555,142.737 171.784,150.392 159.729,147.016 C184.717,244.437 113.842,268.349 84.875,182.893 C58.007,202.802 40.501,198.859 50.78,162.733" fill="#B3CF38"/>
    <path d="M212.972,380.392 C196.488,380.039 183.665,377.574 168.224,371.753 C151.628,365.494 108.305,373.304 97.615,361.074 C88.55,350.705 125.321,337.664 132.04,334.296 C146.896,326.849 154.28,317.105 165.775,305.644 C191.752,279.74 206.151,250.068 192.829,213.834 C178.984,187.808 164.063,182.215 135.567,180.889 C119.606,180.283 101.789,183.711 85.143,183.814 C71.943,183.717 58.707,182.329 48.896,172.693 C40.582,163.628 46.31,148.425 49.02,137.626 C51.217,128.864 50.097,144.464 50.102,146.588 C50.145,160.582 51.365,164.525 67.07,167.119 C93.616,171.094 101.688,170.432 126.8,162.554 C180.49,147.26 182.167,189.049 228.775,177.543 C245.421,173.031 257.493,162.881 272.564,155.139 C281.338,150.497 287.867,146.772 295.892,140.956 C324.382,122.209 323.852,129.405 354.464,130.187 C380.355,130.846 375.263,104.732 381.736,99.24 C386.156,101.308 387.859,131.897 369.379,136.857 C354.105,140.962 340.038,133.493 321.65,142.245 L319.314,143.523 C311.891,148.723 302.571,162.73 300.91,171.764 C299.892,184.944 321.428,177.352 328.583,175.659 C346.041,171.437 350.341,170.194 368.828,169.728 C394.387,169.085 413.146,171.432 436.885,181.224 C456.168,189.177 467.099,191.341 488.195,191.095 C521.922,187.347 523.86,170.028 538.237,143.941 C545.906,130.354 543.001,144.042 540.535,150.212 C529.918,176.918 523.682,189.062 495.27,198.952 C478.382,204.832 460.127,205.341 442.982,200.406 L440.521,199.699 C416.336,191.465 410.271,185.442 382.622,184.906 C358.064,184.432 348.608,194.937 327.163,202.148 C310.342,207.366 304.462,208.621 289.072,217.455 C271.101,228.498 270.857,237.971 268.042,257.435 C265.176,277.312 255.007,325.978 270.946,341.339 C277.105,347.275 292.6,351.132 291.892,357.791 C291.14,364.919 268.402,368.599 261.736,370.839 C243.112,377.097 234.679,379.974 214.614,380.376 L212.972,380.392" fill="#96432A"/>
    <path d="M212.972,380.392 C196.488,380.039 183.665,377.574 168.224,371.753 C160.559,368.863 147.189,368.972 133.968,368.722 C147.668,364.152 168.938,364.458 184.214,358.378 C201.477,351.511 221.665,332.781 225.82,314.035 C232.595,283.474 240.996,256.798 262.007,232.714 C290.417,201.055 313.485,191.523 352.24,191.293 C344.653,194.652 337.23,198.762 327.163,202.148 C310.342,207.366 304.462,208.621 289.072,217.455 C271.101,228.498 270.857,237.971 268.042,257.435 C265.176,277.312 255.007,325.978 270.946,341.339 C277.105,347.275 292.6,351.132 291.892,357.791 C291.14,364.919 268.402,368.599 261.736,370.839 C243.112,377.097 234.679,379.974 214.614,380.376 L212.972,380.392" fill="#7A3523"/>
    <path d="M275.774,344.816 C274.777,351.238 274.857,358.119 273.036,364.701 C272.704,365.91 272.313,367.062 271.874,368.167 C273.919,367.64 276.061,367.062 278.15,366.421 C279.768,360.986 280.899,354.916 282.05,348.238 C279.947,347.115 277.761,345.992 275.774,344.816 z M505.123,187.194 C508.167,185.98 510.797,184.537 513.125,182.881 C515.276,183.224 517.574,183.498 520.352,183.766 C520.847,183.814 521.306,183.88 521.726,183.967 C519.881,185.796 517.85,187.497 515.583,189.096 C513.436,188.834 511.528,188.542 509.642,188.184 L509.631,188.184 C508.145,187.899 506.676,187.575 505.123,187.194 z M375.85,115.743 C376.581,113.643 377.129,111.507 377.633,109.482 C379.994,108.841 382.282,108.028 384.473,106.98 C384.65,108.82 384.696,110.872 384.566,113.026 C381.673,114.245 378.764,115.122 375.85,115.743 z M274.239,154.249 C274.431,160.606 275.57,166.535 278.798,169.849 C279.974,170.698 281.311,171.089 282.833,170.907 C281.89,172.546 281.327,174.213 281.11,175.863 C280.847,177.851 281.081,179.782 281.745,181.585 C282.393,183.342 283.449,184.976 284.85,186.423 C287.746,189.413 292.171,191.591 297.47,192.29 L297.538,192.303 L300.5,192.509 C329.764,194.551 329.96,169.354 356.799,176.672 C372.083,180.834 374.079,179.809 389.104,176.395 C429.159,167.545 431.801,193.361 465.196,189.814 C456.184,188.422 447.898,185.764 436.885,181.224 C423.409,175.665 411.533,172.503 399.108,170.931 C383.573,171.809 379.643,178.076 357.443,170.569 L356.636,170.301 C347.15,171.06 341.427,172.552 328.583,175.659 L328.023,175.793 C325.583,177.791 322.839,180.004 319.378,182.232 C311.792,187.123 296.366,189.254 289.018,182.368 C288.196,181.518 287.58,180.575 287.212,179.582 C286.864,178.633 286.738,177.63 286.872,176.616 C287.159,175.054 287.609,174.041 288.566,172.755 C295.586,163.319 301.335,165.185 311.8,148.259 C326.359,124.707 337.76,131.066 354.557,138.144 C359.498,138.308 364.374,138.203 369.379,136.857 C369.817,136.74 370.24,136.606 370.656,136.461 C364.18,135.754 357.311,132.54 349.971,130.019 C339.124,129.485 332.617,128.215 326.791,128.184 C312.577,133.016 307.827,150.638 295.555,159.304 C300.133,151.79 304.685,140.458 310.066,132.523 C307.642,133.734 304.947,135.253 301.867,137.147 C295.652,148.709 286.315,166.459 282.192,165.131 C280.237,163.722 279.862,157.722 280.082,151.056 C278.214,152.106 276.286,153.159 274.239,154.249 z M195.83,257.521 C203.39,253.216 211.68,251.017 216.631,244.492 C221.248,237.344 214.909,199.223 211.229,191.51 C206.366,183.249 185.476,176.035 176.514,172.413 C167.221,168.659 159.763,162.704 150.24,162.069 C148.866,162.102 147.231,162.142 145.059,161.933 C130.711,160.545 121.227,164.335 112.495,167.832 C105.047,170.806 98.189,173.543 89.338,172.051 C82.708,170.934 73.666,169.17 64.098,166.575 C61.461,166.037 59.32,165.431 57.581,164.692 C53.204,163.35 48.806,161.828 44.565,160.111 C44.573,162.412 44.846,164.638 45.495,166.723 C60.952,172.56 77.72,175.994 88.381,177.791 C98.815,179.549 106.402,176.519 114.643,173.226 L114.656,173.226 C122.762,169.985 131.568,166.471 144.509,167.718 C150.422,168.228 152.075,166.872 157.918,169.575 C171.707,175.948 185.634,179.394 199.082,186.187 C210.965,192.193 211.15,204.918 212.503,217.214 C214.303,233.895 216.396,240.891 201.332,249.708 C199.837,250.593 198.364,251.472 196.898,252.394 C196.606,254.119 196.248,255.828 195.83,257.521 z M115.714,367.748 C113.649,367.507 111.668,367.207 109.818,366.824 C114.342,361.763 119.446,357.289 124.721,355.033 C145.241,346.279 154.993,346.892 169.844,328.148 C178.706,316.955 177.021,305.742 175.979,294.509 C177.259,292.968 178.487,291.417 179.67,289.851 C180.678,304.472 186.608,318.566 171.688,335.406 C158.753,349.998 148.976,351.376 132.206,358.605 C122.613,362.74 119.106,364.158 115.714,367.748 z M163.313,370.416 C168.722,359.599 174.436,352.572 180.796,342.24 C192.54,323.175 189.451,311.81 196.221,294.158 C203.926,274.066 233.323,277.412 241.773,249.302 C249.381,218.75 227.055,221.346 234.422,194.369 C237.652,183.446 240.358,177.609 241.685,172.68 C240.192,173.393 238.676,174.068 237.125,174.7 C236.105,178.665 234.369,182.85 232.064,187.856 C226.038,201.778 225.413,208.514 232.57,222.053 C246.076,247.587 231.288,259.986 209.502,270.693 C187.455,282.205 189.336,287.369 186.882,310.687 C183.855,339.421 167.626,345.847 156.632,369.507 C159.03,369.724 161.271,370.019 163.313,370.416 z M194.889,378.929 C193.593,378.73 192.304,378.517 191.024,378.279 C188.542,373.802 191.795,358.669 192.355,354.498 C194.986,334.875 199.588,331.603 206.846,314.351 C210.274,306.199 210.652,305.441 210.687,296.291 C210.714,289.507 218.396,286.32 223.519,283.587 C240.972,275.738 243.954,262.322 248.593,245.316 C251.696,234.021 249.632,226.569 248.031,215.165 C245.357,194.497 256.697,182.186 259.879,162.375 C261.613,161.325 263.354,160.277 265.125,159.242 C264.691,162.353 263.949,167.387 262.36,172.279 C255.433,193.581 250.731,196.019 254.379,220.099 C256.389,233.378 255.483,240.556 252.114,253.38 C246.654,273.783 244.904,280.314 226.348,291.933 C214.605,300.078 218.305,303.322 211.984,315.253 C200.561,336.816 198.075,335.623 198.806,360.757 C198.985,367.001 200.834,362.218 203.644,358.029 C214.536,341.783 213.84,327.992 220.899,316.396 C223.417,312.261 225.846,310.189 229.697,307.572 C240.053,301.232 241.421,301.214 244.49,288.023 L245.551,283.453 C248.728,268.205 250.72,263.121 256.774,249.248 C259.494,243.018 260.94,238.335 262.491,231.704 C267.777,204.136 269.941,196.983 267.137,168.589 C266.664,163.803 266.363,160.603 266.143,158.653 C267.875,157.654 269.639,156.671 271.442,155.723 C273.614,174.684 276.475,194.722 271.819,211.953 L271.096,214.626 C288.083,190.323 301.938,208.256 328.378,194.733 C348.521,184.43 342.945,185.427 366.087,184.532 C394.337,183.441 396.972,174.035 427.823,187.015 C429.49,187.714 431.142,188.457 432.792,189.192 C446.629,195.5 464.151,203.099 479.705,202.802 C469.972,204.27 460.05,204.069 450.361,202.183 C429.155,192.919 416.443,179.721 386.833,185.038 C385.486,184.979 384.084,184.933 382.622,184.906 C373.029,184.722 365.736,186.214 359.138,188.528 C358.6,188.54 358.05,188.55 357.485,188.555 C337.788,188.791 334.144,198.89 316.334,203.902 L314.077,204.538 C291.065,210.22 280.097,198.317 269.467,229.352 C268.841,231.295 268.311,233.28 267.78,235.249 C264.268,248.808 260.94,262.761 256.805,276.07 C251.141,297.427 260.091,306.566 255.031,323.095 C249.897,339.855 251.963,335.234 254.68,351.253 C255.905,358.478 255.779,366.085 254.23,373.345 C252.532,373.904 250.908,374.423 249.34,374.91 C249.416,374.669 249.483,374.445 249.539,374.23 C254.945,352.904 242.456,335.611 248.015,324.607 C252.81,315.113 252.513,313.902 250.85,303.048 C247.564,284.421 253.322,280.066 246.048,297.664 C235.813,317.689 228.287,304.039 220.361,336.775 C216.762,351.634 209.355,365.091 198.509,375.998 C197.088,377.425 195.894,378.375 194.889,378.929" fill="#6E2F20"/>
    <path d="M275.774,344.816 C274.777,351.238 274.857,358.119 273.036,364.701 C272.704,365.91 272.313,367.062 271.874,368.167 C273.919,367.64 276.061,367.062 278.15,366.421 C279.768,360.986 280.899,354.916 282.05,348.238 C279.947,347.115 277.761,345.992 275.774,344.816 z M167.535,362.73 C164.856,363.195 162.148,363.601 159.45,363.984 C158.48,365.722 157.537,367.554 156.632,369.507 C159.03,369.724 161.271,370.019 163.313,370.416 C164.698,367.646 166.104,365.123 167.535,362.73 z M302.472,200.573 C309.835,200.487 318.167,199.957 328.378,194.733 C330.073,193.87 331.579,193.085 332.938,192.37 C335.811,192.038 338.767,191.787 341.825,191.609 C333.695,195.049 328.114,200.589 316.334,203.902 L314.077,204.538 C304.693,206.857 297.312,206.247 291.14,206.82 C294.86,204.419 298.62,202.35 302.472,200.573 z M237.985,272.394 C235.97,277.404 234.194,282.521 232.584,287.759 C245.4,278.455 247.34,271.218 252.114,253.38 C253.247,249.072 254.099,245.406 254.658,241.925 C251.197,246.683 248.149,251.542 245.44,256.509 C243.592,262.46 241.425,267.798 237.985,272.394 z M194.889,378.929 C193.593,378.73 192.304,378.517 191.024,378.279 C188.542,373.802 191.795,358.669 192.355,354.498 L192.372,354.378 C194.503,353.146 196.633,351.765 198.734,350.259 C198.653,353.193 198.686,356.617 198.806,360.757 C198.985,367.001 200.834,362.218 203.644,358.029 C208.667,350.539 211.223,343.574 213.213,337.101 C219.353,330.029 224.047,322.035 225.82,314.035 C226.144,312.568 226.471,311.113 226.806,309.666 C227.682,308.972 228.636,308.292 229.697,307.572 C240.053,301.232 241.421,301.214 244.49,288.023 L245.551,283.453 C248.728,268.205 250.72,263.121 256.774,249.248 C259.405,243.222 260.847,238.643 262.338,232.347 C265.75,228.562 269.083,225.098 272.376,221.929 C271.399,224.083 270.431,226.537 269.467,229.352 C268.841,231.295 268.311,233.28 267.78,235.249 C264.268,248.808 260.94,262.761 256.805,276.07 C251.141,297.427 260.091,306.566 255.031,323.095 C249.897,339.855 251.963,335.234 254.68,351.253 C255.905,358.478 255.779,366.085 254.23,373.345 C252.532,373.904 250.908,374.423 249.34,374.91 C249.416,374.669 249.483,374.445 249.539,374.23 C254.945,352.904 242.456,335.611 248.015,324.607 C252.81,315.113 252.513,313.902 250.85,303.048 C247.564,284.421 253.322,280.066 246.048,297.664 C235.813,317.689 228.287,304.039 220.361,336.775 C216.762,351.634 209.355,365.091 198.509,375.998 C197.088,377.425 195.894,378.375 194.889,378.929" fill="#5A2A1C"/>
    <path d="M87.329,352.966 L606.616,350.046 C593.366,396.419 521.464,433.273 459.187,425.955 C425.308,421.972 365.511,402 317.298,404.017 C283.837,405.416 108.861,419.156 87.329,352.966" fill="#9FB93B"/>
    <path d="M87.329,352.136 L606.616,350.046 C593.366,383.285 521.464,409.705 459.187,404.458 C425.308,401.603 365.511,387.287 317.298,388.734 C283.837,389.736 108.861,399.583 87.329,352.136" fill="#8CA43D"/>
    <path d="M87.329,351.152 L606.616,350.046 C593.366,367.613 521.464,381.576 459.187,378.804 C425.308,377.294 365.511,369.73 317.298,370.494 C283.837,371.021 108.861,376.228 87.329,351.152" fill="#7B913C"/>
    <path d="M359.272,75.117 C338.668,56.7 321.985,102.118 350.368,100.564 C347.201,129.135 358.916,141.92 380.406,120.321 C404.931,155.206 442.45,90.486 399.832,86.72 C397.728,55.933 376.961,49.234 359.272,75.117 z M535.137,122.064 C522.107,95.71 482.006,115.749 495.387,141.986 C462.201,171.772 498.233,205.325 531.732,171.309 C546.509,212.818 598.992,193.661 567.091,154.207 C592.471,123.404 564.554,102.665 535.137,122.064 z M141.054,110.185 C137.274,110.185 134.215,113.246 134.215,117.023 C134.215,120.8 137.274,123.865 141.054,123.865 C144.831,123.865 147.894,120.8 147.894,117.023 C147.894,113.246 144.831,110.185 141.054,110.185 z M187.708,63.687 C199.295,63.687 208.691,73.081 208.691,84.673 C208.691,96.262 199.295,105.656 187.708,105.656 C176.115,105.656 166.721,96.262 166.721,84.673 C166.721,73.081 176.115,63.687 187.708,63.687 z M248.192,71.094 C254.784,71.094 260.125,76.438 260.125,83.028 C260.125,89.618 254.784,94.96 248.192,94.96 C241.604,94.96 236.26,89.618 236.26,83.028 C236.26,76.438 241.604,71.094 248.192,71.094 z M469.775,110.185 C476.024,110.185 481.09,115.25 481.09,121.499 C481.09,127.75 476.024,132.815 469.775,132.815 C463.527,132.815 458.462,127.75 458.462,121.499 C458.462,115.25 463.527,110.185 469.775,110.185 z M309.503,62.864 C319.729,62.864 328.02,71.155 328.02,81.38 C328.02,91.606 319.729,99.897 309.503,99.897 C299.278,99.897 290.988,91.606 290.988,81.38 C290.988,71.155 299.278,62.864 309.503,62.864 z M77.84,149.117 C49.452,205.089 -16.292,146.812 48.308,124.516 C32.154,69.1 96.04,54.936 96.292,116.002 C143.671,131.939 120.054,178.266 77.84,149.117" fill="#C9DA63"/>
    <path d="M366.699,292.882 L458.872,292.882 L458.872,305.636 L366.699,305.636 z" fill="#6E2F20"/>
    <path d="M378.427,164.705 L378.427,164.705 C379.785,164.705 380.897,165.814 380.897,167.172 L380.897,294.322 C380.897,295.679 379.785,296.789 378.427,296.789 C377.068,296.789 375.957,295.679 375.957,294.322 L375.957,167.172 C375.957,165.814 377.068,164.705 378.427,164.705" fill="#6E2F20"/>
    <path d="M446.939,179.104 L446.939,179.104 C448.298,179.104 449.408,180.215 449.408,181.574 L449.408,294.322 C449.408,295.679 448.298,296.789 446.939,296.789 C445.579,296.789 444.469,295.679 444.469,294.322 L444.469,181.574 C444.469,180.215 445.579,179.104 446.939,179.104" fill="#6E2F20"/>
  </g>
</svg>
