<?xml version="1.0" encoding="utf-8"?>
<!-- Generator: Adobe Illustrator 18.1.1, SVG Export Plug-In . SVG Version: 6.00 Build 0)  -->
<svg version="1.1" id="Layer_1" xmlns="http://www.w3.org/2000/svg" xmlns:xlink="http://www.w3.org/1999/xlink" x="0px" y="0px"
	 viewBox="0 0 317.2 125.8" enable-background="new 0 0 317.2 125.8" xml:space="preserve">
<path fill="#FFFFFF" d="M291.8,125.7H25.4c-13.8,0-25-11.2-25-25V25.1c0-13.8,11.2-25,25-25h266.4c13.8,0,25,11.2,25,25v75.6
	C316.8,114.5,305.6,125.7,291.8,125.7z"/>
<linearGradient id="SVGID_1_" gradientUnits="userSpaceOnUse" x1="63.2284" y1="-43.0271" x2="254.0524" y2="168.9044" gradientTransform="matrix(1 0 0 -1 0 125.845)">
	<stop  offset="0" style="stop-color:#AF0B0D"/>
	<stop  offset="1" style="stop-color:#6B0D0D"/>
</linearGradient>
<path opacity="0.9" fill="url(#SVGID_1_)" enable-background="new    " d="M292.2,125.8H25c-13.8,0-25-11.2-25-25V25
	C0,11.2,11.2,0,25,0h267.3c13.8,0,25,11.2,25,25v75.9C317.2,114.7,306,125.8,292.2,125.8z"/>
<g>
	<rect x="26.7" y="89.1" fill="none" width="245.2" height="23.8"/>
	<g enable-background="new    ">
		<path fill="#FFFFFF" d="M32.6,107.8l-2,4.4h-4.7l10.4-23.1H41l10.4,23.1h-4.8l-1.9-4.4H32.6z M34.3,103.8h8.6l-4.3-9.8L34.3,103.8
			z"/>
		<path fill="#FFFFFF" d="M60.4,112.7c-4.7,0-8.6-2.8-8.6-8.6s3.9-8.6,8.6-8.6c2.3,0,4.1,0.7,5.9,2.4l-2.5,2.7
			c-1-0.9-2.1-1.3-3.3-1.3c-2.7,0-4.7,2-4.7,4.8c0,3.1,2.1,4.8,4.6,4.8c1.3,0,2.6-0.4,3.6-1.4l2.7,2.6
			C64.8,112,62.8,112.7,60.4,112.7z"/>
		<path fill="#FFFFFF" d="M72.5,98.1c1.5-1.9,3.2-2.4,5.1-2.4c4.6,0,6.7,3.1,6.7,7.9v8.6h-4v-8.5c0-3-1.6-4.2-3.7-4.2
			c-2.4,0-4,2-4,4.5v8.3h-4V89.1h4V98.1z"/>
		<path fill="#FFFFFF" d="M95.9,109c1.5,0,3.4-0.6,4.4-1.5l2.6,2.5c-1.7,1.8-4.5,2.6-7,2.6c-5.6,0-8.9-3.5-8.9-8.7
			c0-5,3.4-8.5,8.6-8.5c5.4,0,8.8,3.4,8.2,10.1H91C91.3,107.5,93.1,109,95.9,109z M95.7,99c-2.2,0-4,1.1-4.6,3.2h8.8
			C99.6,100,98,99,95.7,99z"/>
		<path fill="#FFFFFF" d="M111.8,95.9h4.5v3.5h-4.5v7c0,1.6,0.9,2.3,2.1,2.3c0.6,0,1.4-0.2,1.9-0.5l1.1,3.4
			c-1.2,0.5-2.1,0.7-3.3,0.7c-3.5,0.1-5.8-1.9-5.8-5.9v-7h-3v-3.5h3v-4.2l4-0.4V95.9z"/>
		<path fill="#FFFFFF" d="M127.6,109c1.5,0,3.4-0.6,4.4-1.5l2.6,2.5c-1.7,1.8-4.5,2.6-7,2.6c-5.6,0-8.9-3.5-8.9-8.7
			c0-5,3.4-8.5,8.6-8.5c5.4,0,8.8,3.4,8.2,10.1h-12.7C123,107.5,124.8,109,127.6,109z M127.4,99c-2.2,0-4,1.1-4.6,3.2h8.8
			C131.3,100,129.7,99,127.4,99z"/>
		<path fill="#FFFFFF" d="M142.6,97.8c1.3-2,2.9-2.3,4.6-2.3c1.7,0,3.3,0.7,4.2,1.6l-1.8,3.5c-0.8-0.7-1.6-1.1-2.9-1.1
			c-2.1,0-4.1,1.1-4.1,4.1v8.6h-4V95.9h3.7L142.6,97.8z"/>
	</g>
	<rect x="68.1" y="17.6" fill="none" width="222.5" height="25.7"/>
	<g enable-background="new    ">
		<path fill="#FFFFFF" d="M79.1,19.1c-3,0-7.6,1.1-7.6,5.1c0,3.2,3.5,4,7.7,4.8c4.9,0.9,9.9,1.8,9.9,7.2c0,5.7-5.8,7.1-10,7.1
			c-3.9,0-8.4-1.6-10.3-5.5l1.7-0.9c1.5,3.1,5.5,4.6,8.6,4.6s8-0.9,8-5.3c0-3.8-4.1-4.6-8.3-5.4c-4.6-0.9-9.3-1.8-9.3-6.5
			c-0.1-5.3,5.4-7,9.6-7c3.6,0,6.7,0.6,9.2,4.3l-1.6,0.9C84.9,19.6,82,19.1,79.1,19.1z"/>
		<path fill="#FFFFFF" d="M111.1,42.8h-1.8v-3.8c-1.7,2.8-4.4,4.1-7.3,4.1c-5,0-9-3.7-9-9.2s4.1-9.1,9-9.1c2.9,0,5.8,1.3,7.3,4.1
			v-3.9h1.8V42.8z M94.8,34c0,4.5,3.2,7.5,7.3,7.5c9.9,0,9.9-14.9,0-14.9C98.1,26.5,94.8,29.5,94.8,34z"/>
		<path fill="#FFFFFF" d="M117.6,28.2c1.4-2.4,3.9-3.5,6.3-3.5c4.8,0,8,2.9,8,7.8v10.3h-1.8V32.6c0-4-2.5-6.2-6.3-6.2
			c-3.7,0-6.2,2.8-6.2,6.5v9.9h-1.8V25.1h1.7V28.2z"/>
		<path fill="#FFFFFF" d="M139.9,25.1h6v1.5h-6v10.8c0,2.4,0.5,4.1,3.3,4.1c0.9,0,1.8-0.3,2.7-0.7l0.6,1.4c-1.1,0.5-2.2,0.9-3.3,0.9
			c-3.8,0-5-2.2-5-5.7V26.5h-3.8v-1.5h3.8v-5.2l1.7-0.2V25.1z"/>
		<path fill="#FFFFFF" d="M158.1,43.1c-5,0-9-3.5-9-9.1c0-5.3,4-9.2,9-9.2c5,0,9.5,3.1,8.8,10h-16c0.4,4.2,3.6,6.6,7.2,6.6
			c2.3,0,5.1-0.9,6.4-2.7l1.3,1C164,41.9,160.9,43.1,158.1,43.1z M150.8,33.2h14.4c0-4.4-2.9-6.8-7.2-6.8
			C154.4,26.4,151.2,28.9,150.8,33.2z M156.8,22.1h1.7l3.3-4.4v0h-2.3l-2.7,4.3V22.1z"/>
	</g>
	<g>
		<path fill="#FFFFFF" d="M179.9,105.3l-7.8-7.4c-0.6-0.6-0.7-1.6-0.1-2.3l0.3-0.3c0.6-0.6,1.6-0.7,2.3-0.1l7.8,7.4
			c0.6,0.6,0.7,1.6,0.1,2.3l-0.3,0.3C181.5,105.9,180.5,105.9,179.9,105.3z"/>
		<path fill="#FFFFFF" d="M182.4,104.9l-7.4,7.8c-0.6,0.6-1.6,0.7-2.3,0.1l-0.3-0.3c-0.6-0.6-0.7-1.6-0.1-2.3l7.4-7.8
			c0.6-0.6,1.6-0.7,2.3-0.1l0.3,0.3C183,103.3,183,104.3,182.4,104.9z"/>
	</g>
	<g>
		<g>
			<path fill="#FFFFFF" d="M37.2,27v1.8h-1.8c-0.3,0-0.6,0.3-0.6,0.6v2.4c0,0.3,0.3,0.6,0.6,0.6h1.8v1.8c0,0.3,0.3,0.6,0.6,0.6h2.4
				c0.3,0,0.6-0.3,0.6-0.6v-1.8h1.8c0.3,0,0.6-0.3,0.6-0.6v-2.4c0-0.3-0.3-0.6-0.6-0.6h-1.8V27c0-0.3-0.3-0.6-0.6-0.6h-2.4
				C37.4,26.4,37.2,26.6,37.2,27z M38.4,29.4v-1.8h1.2v1.8c0,0.3,0.3,0.6,0.6,0.6H42v1.2h-1.8c-0.3,0-0.6,0.3-0.6,0.6v1.8h-1.2v-1.8
				c0-0.3-0.3-0.6-0.6-0.6H36V30h1.8C38.1,30,38.4,29.7,38.4,29.4z"/>
			<path fill="#FFFFFF" d="M47.4,23.4c0-0.3-0.2-0.5-0.5-0.6c-2.7-0.5-5.3-1.6-7.5-3.4c-0.2-0.2-0.5-0.2-0.7,0
				c-2.2,1.7-4.8,2.9-7.5,3.4c-0.3,0-0.5,0.3-0.5,0.6v3.3c0,6.2,3.1,12.3,8.1,15.7c0.1,0.1,0.2,0.1,0.3,0.1s0.2,0,0.3-0.1
				c4.9-3.4,8.1-9.4,8.1-15.7L47.4,23.4z M46.2,26.6c0,5.7-2.7,11.2-7.2,14.4c-4.4-3.2-7.2-8.7-7.2-14.4v-2.8
				c2.6-0.5,5.1-1.6,7.2-3.2c2.1,1.6,4.6,2.7,7.2,3.2V26.6z"/>
			<circle fill="#FFFFFF" cx="46.9" cy="37.3" r="0.6"/>
			<path fill="#FFFFFF" d="M49.8,20c-3.7,0-7.2-1.4-9.8-4.1l-0.6-0.6c-0.2-0.2-0.6-0.2-0.8,0L38,15.9c-2.6,2.6-6.1,4.1-9.8,4.1
				c-0.3,0-0.6,0.3-0.6,0.6v6c0,7.8,4.2,15.4,11.1,19.2c0.1,0.1,0.2,0.1,0.3,0.1s0.2,0,0.3-0.1c2.6-1.4,4.8-3.4,6.7-5.9
				c0.2-0.3,0.1-0.6-0.1-0.8c-0.3-0.2-0.6-0.1-0.8,0.1c-1.7,2.2-3.7,4-6,5.4C32.8,41,28.8,34,28.8,26.6v-5.4
				c3.7-0.1,7.3-1.6,10.1-4.4l0.1-0.1l0.1,0.1c2.6,2.6,6.2,4.3,10.1,4.4v5.4c0,2.8-0.5,5.5-1.6,8.1c-0.1,0.3,0,0.7,0.3,0.8
				s0.7,0,0.8-0.3c1.1-2.7,1.7-5.6,1.7-8.5v-6C50.4,20.3,50.1,20,49.8,20z"/>
		</g>
	</g>
</g>
</svg>
