<?xml version="1.0" encoding="utf-8"?>
<!-- Generator: Adobe Illustrator 18.1.1, SVG Export Plug-In . SVG Version: 6.00 Build 0)  -->
<svg version="1.1" id="Layer_1" xmlns="http://www.w3.org/2000/svg" xmlns:xlink="http://www.w3.org/1999/xlink" x="0px" y="0px"
	 viewBox="0 0 317.2 125.8" enable-background="new 0 0 317.2 125.8" xml:space="preserve">
<g>
	
		<linearGradient id="SVGID_1_" gradientUnits="userSpaceOnUse" x1="63.2284" y1="-43.0271" x2="254.0524" y2="168.9044" gradientTransform="matrix(1 0 0 -1 0 125.845)">
		<stop  offset="0" style="stop-color:#A97C50"/>
		<stop  offset="1" style="stop-color:#8B5E3C"/>
	</linearGradient>
	<path opacity="0.9" fill="url(#SVGID_1_)" enable-background="new    " d="M292.2,125.8H25c-13.8,0-25-11.2-25-25V25
		C0,11.2,11.2,0,25,0h267.3c13.8,0,25,11.2,25,25v75.9C317.2,114.7,306,125.8,292.2,125.8z"/>
	<g>
		<rect x="26.7" y="89.1" fill="none" width="245.2" height="23.8"/>
		<g enable-background="new    ">
			<path fill="#FFFFFF" d="M32.6,107.8l-2,4.4h-4.7l10.4-23.1H41l10.4,23.1h-4.8l-1.9-4.4H32.6z M34.3,103.8h8.6l-4.3-9.8
				L34.3,103.8z"/>
			<path fill="#FFFFFF" d="M60.4,112.7c-4.7,0-8.6-2.8-8.6-8.6s3.9-8.6,8.6-8.6c2.3,0,4.1,0.7,5.9,2.4l-2.5,2.7
				c-1-0.9-2.1-1.3-3.3-1.3c-2.7,0-4.7,2-4.7,4.8c0,3.1,2.1,4.8,4.6,4.8c1.3,0,2.6-0.4,3.6-1.4l2.7,2.6
				C64.8,112,62.8,112.7,60.4,112.7z"/>
			<path fill="#FFFFFF" d="M72.5,98.1c1.5-1.9,3.2-2.4,5.1-2.4c4.6,0,6.7,3.1,6.7,7.9v8.6h-4v-8.5c0-3-1.6-4.2-3.7-4.2
				c-2.4,0-4,2-4,4.5v8.3h-4V89.1h4V98.1z"/>
			<path fill="#FFFFFF" d="M95.9,109c1.5,0,3.4-0.6,4.4-1.5l2.6,2.5c-1.7,1.8-4.5,2.6-7,2.6c-5.6,0-8.9-3.5-8.9-8.7
				c0-5,3.4-8.5,8.6-8.5c5.4,0,8.8,3.4,8.2,10.1H91C91.3,107.5,93.1,109,95.9,109z M95.7,99c-2.2,0-4,1.1-4.6,3.2h8.8
				C99.6,100,98,99,95.7,99z"/>
			<path fill="#FFFFFF" d="M111.8,95.9h4.5v3.5h-4.5v7c0,1.6,0.9,2.3,2.1,2.3c0.6,0,1.4-0.2,1.9-0.5l1.1,3.4
				c-1.2,0.5-2.1,0.7-3.3,0.7c-3.5,0.1-5.8-1.9-5.8-5.9v-7h-3v-3.5h3v-4.2l4-0.4V95.9z"/>
			<path fill="#FFFFFF" d="M127.6,109c1.5,0,3.4-0.6,4.4-1.5l2.6,2.5c-1.7,1.8-4.5,2.6-7,2.6c-5.6,0-8.9-3.5-8.9-8.7
				c0-5,3.4-8.5,8.6-8.5c5.4,0,8.8,3.4,8.2,10.1h-12.7C123,107.5,124.8,109,127.6,109z M127.4,99c-2.2,0-4,1.1-4.6,3.2h8.8
				C131.3,100,129.7,99,127.4,99z"/>
			<path fill="#FFFFFF" d="M142.6,97.8c1.3-2,2.9-2.3,4.6-2.3c1.7,0,3.3,0.7,4.2,1.6l-1.8,3.5c-0.8-0.7-1.6-1.1-2.9-1.1
				c-2.1,0-4.1,1.1-4.1,4.1v8.6h-4V95.9h3.7L142.6,97.8z"/>
		</g>
		<rect x="68.1" y="17.6" fill="none" width="222.5" height="25.7"/>
		<g enable-background="new    ">
			<path fill="#FFFFFF" d="M68.5,19.4v-1.7h20.2v1.7h-9.1v23.4h-1.9V19.4H68.5z"/>
			<path fill="#FFFFFF" d="M86.1,34c0-5.3,4-9.2,9-9.2s9.5,3.1,8.8,10h-16c0.4,4.2,3.6,6.6,7.2,6.6c2.3,0,5.1-0.9,6.4-2.7l1.3,1
				c-1.7,2.3-4.8,3.4-7.7,3.4C90.1,43.1,86.1,39.6,86.1,34z M95.1,26.4c-3.7,0-6.8,2.5-7.2,6.8h14.4C102.3,28.8,99.4,26.4,95.1,26.4
				z"/>
			<path fill="#FFFFFF" d="M110.2,28.2c1.1-2.4,3.6-3.3,5.9-3.3c1.3,0,2.6,0.3,3.8,1l-0.8,1.4c-0.9-0.6-2-0.8-3-0.8
				c-3.3,0-5.9,2.7-5.9,5.9v10.4h-1.8V25.1h1.7L110.2,28.2z"/>
			<path fill="#FFFFFF" d="M124.3,28.2c1.1-2.4,3.6-3.3,5.9-3.3c1.3,0,2.6,0.3,3.8,1l-0.8,1.4c-0.9-0.6-2-0.8-3-0.8
				c-3.3,0-5.9,2.7-5.9,5.9v10.4h-1.8V25.1h1.7L124.3,28.2z"/>
			<path fill="#FFFFFF" d="M153.8,42.8h-1.8v-3.8c-1.7,2.8-4.4,4.1-7.3,4.1c-5,0-9-3.7-9-9.2s4.1-9.1,9-9.1c2.9,0,5.8,1.3,7.3,4.1
				v-3.9h1.8V42.8z M137.5,34c0,4.5,3.2,7.5,7.3,7.5c9.9,0,9.9-14.9,0-14.9C140.8,26.5,137.5,29.5,137.5,34z"/>
			<path fill="#FFFFFF" d="M161,19.3c0,1.9-2.8,1.9-2.8,0S161,17.4,161,19.3z M158.6,42.8h1.8V25h-1.8V42.8z"/>
			<path fill="#FFFFFF" d="M167.1,28.2c1.4-2.4,3.9-3.5,6.3-3.5c4.8,0,8,2.9,8,7.8v10.3h-1.8V32.6c0-4-2.5-6.2-6.3-6.2
				c-3.7,0-6.2,2.8-6.2,6.5v9.9h-1.8V25.1h1.7V28.2z"/>
		</g>
		<g>
			<path fill="#FFFFFF" d="M179.9,105.3l-7.8-7.4c-0.6-0.6-0.7-1.6-0.1-2.3l0.3-0.3c0.6-0.6,1.6-0.7,2.3-0.1l7.8,7.4
				c0.6,0.6,0.7,1.6,0.1,2.3l-0.3,0.3C181.5,105.9,180.5,105.9,179.9,105.3z"/>
			<path fill="#FFFFFF" d="M182.4,104.9l-7.4,7.8c-0.6,0.6-1.6,0.7-2.3,0.1l-0.3-0.3c-0.6-0.6-0.7-1.6-0.1-2.3l7.4-7.8
				c0.6-0.6,1.6-0.7,2.3-0.1l0.3,0.3C183,103.3,183,104.3,182.4,104.9z"/>
		</g>
		<g>
			<circle fill="#FFFFFF" cx="39.2" cy="27" r="0.6"/>
			<path fill="#FFFFFF" d="M34.7,33h9c0.3,0,0.6-0.3,0.6-0.6v-5.6l0.8,0.7c0.3,0.2,0.6,0.2,0.8-0.1c0.2-0.3,0.2-0.6-0.1-0.8
				l-6.3-5.4c-0.2-0.2-0.6-0.2-0.8,0l-6.3,5.4c-0.3,0.2-0.3,0.6-0.1,0.8c0.2,0.3,0.6,0.3,0.8,0.1l0.8-0.7v5.6
				C34.1,32.7,34.3,33,34.7,33L34.7,33z M35.3,25.7l3.9-3.3l3.9,3.3v6.1h-3.3v-2.4c0-0.3-0.3-0.6-0.6-0.6s-0.6,0.3-0.6,0.6v2.4h-3.3
				C35.3,31.8,35.3,25.7,35.3,25.7z"/>
			<path fill="#FFFFFF" d="M38.7,45.8c0.1,0.1,0.3,0.2,0.4,0.2s0.3-0.1,0.4-0.2c3.8-4,11-12.9,11-18.8c0-2.1-0.6-4.2-1.6-6
				c-0.2-0.3-0.5-0.4-0.8-0.2c-0.3,0.2-0.4,0.5-0.2,0.8c1,1.7,1.5,3.5,1.5,5.4c0,6.1-8.2,15.3-10.2,17.5C37.2,42.3,28.9,33,28.9,27
				c0-5.7,4.7-10.6,10.2-10.6c1.8,0,3.6,0.5,5.2,1.5c0.3,0.2,0.7,0.1,0.8-0.2c0.2-0.3,0.1-0.7-0.2-0.8c-1.8-1.1-3.8-1.7-5.8-1.7
				c-6.4,0-11.4,5.6-11.4,11.8C27.7,32.9,34.9,41.8,38.7,45.8L38.7,45.8z"/>
			<circle fill="#FFFFFF" cx="46.8" cy="19.1" r="0.6"/>
		</g>
	</g>
</g>
</svg>
